<svg id="Calque_1" data-name="Calque 1" xmlns="http://www.w3.org/2000/svg" viewBox="0 0 474 474"><defs><style>.cls-1{fill:#b7130f;}</style></defs><title>Plan de travail 1</title><g id="Calque_4" data-name="Calque 4"><path class="cls-1" d="M-322.25,240.9c.3-9.7.8-19.4,1.6-29.1,0,0,11.6,1.1,35.4,3.4,192.3,20.6,386.6,38.1,579,60.4-192.9-6-386.1-5.5-579.4-11-24.2-.3-36.9-.4-36.9-.4C-322.55,256.5-322.45,248.7-322.25,240.9Zm16,162s12.1-2.7,37.9-8.3c188.1-39,374.3-80.7,562.1-119-183.3,53.2-365.2,113-549.1,166.5l-36.9,11.4C-297.65,436.9-302.35,419.9-306.25,402.9Zm11.7-328.3c5.2-16.7,11.1-33.3,17.6-49.5,0,0,13.5,5.8,36.9,15.8,178.6,76.3,354.5,157,533.8,233-184.6-61.3-367.6-124.3-550.6-186.8C-282.25,78.7-294.55,74.6-294.55,74.6Zm59.9,506.2s8.8-5.1,30.9-18c165.8-94.5,330.9-192.5,497.5-287.2-157.3,109.7-314.6,221-472.7,330.2L-206,624.7C-216.15,610.5-225.75,595.8-234.65,580.8Zm24.3-678.5c10-14.3,20.6-28.3,31.8-41.8l31.8,27.5Q74.5,80.15,293.85,275.6c-155.2-117.7-313.7-232.3-470.8-349C-198.65-89.2-210.35-97.7-210.35-97.7Zm97.6,826.4s6.4-7.1,23.3-25.9c127.2-142.1,256-285.4,383.2-427.1-116.1,153.5-230.5,307-346.5,460.4-13.7,18.2-19.4,25.8-19.4,25.8C-86,751.5-99.75,740.3-112.75,728.7Zm34.6-965.2c13.8-10.6,28.2-20.8,42.8-30.3,0,0,8.6,13.8,23.2,37.6,100.3,169.5,206.4,334.8,305.9,504.8C180.85,115,61.35-40.9-52.25-201.3-68-222.7-78.15-236.5-78.15-236.5ZM48.05,833.1s5.1-11.6,15.1-34c77.3-174.7,153.1-349.1,230.6-523.4-61.4,183-124.2,362.7-186.1,545.5C100,843.5,97,852.5,97,852.5,80.45,846.7,64.05,840.2,48.05,833.1ZM89.65-329c16.4-6,33.2-11.3,50-15.9,0,0,4.3,16.9,11,43.1,45.4,193,98.3,384.5,143.1,577.4-61.3-188.5-127.5-375.5-189.9-563.3C95.25-312.8,89.65-329,89.65-329ZM233.05,883.7s1.1-9.9,3.6-34c19-190.7,38.1-383.2,57.1-574.1-1.1,193.1-5.4,384.5-7.9,577.4-.4,24.3-.6,34.5-.6,34.5C268,887,250.35,885.7,233.05,883.7Zm44.6-1250.1c15.4-.7,31.2-.7,46.7-.3,1.9.1,3.8.1,5.7.2,0,0-1,18.8-2.4,46.2-11.8,198.9-21.2,396.6-34,595.9-2-198.1-10.6-396.4-14.7-595.3C278.25-348.2,277.65-366.4,277.65-366.4ZM294.45,275c27.8,191.4,51.4,380.3,79.2,570.6,3.4,25.8,5,37.9,5,37.9-17.3,2-34.9,3.3-52.3,3.9,0,0-.6-13-1.8-38.3C313,657.6,305.75,467.5,294.45,275Zm0,0c54.3-190.8,107.8-383.9,161.3-575.8,7.6-27.3,12.4-44.7,12.4-44.7,16.8,4.5,33.7,9.8,50.1,15.7,0,0-6.8,18.5-16.5,44.8-70.4,186.8-138.4,374.6-207.3,560Zm0,0c85.6,173.5,166.9,347.9,251.6,520.5,11.1,23.3,17.4,36.7,17.4,36.7-15.9,7.2-32.2,13.8-48.7,19.6,0,0-4.3-11.5-13.3-35.5-70-181.2-136.4-361.7-207-541.3Zm0,0c107.6-167.8,214.4-336.4,323.9-503.7,15.1-23.5,25.1-39.1,25.1-39.1,14.7,9.4,29.1,19.6,42.9,30.2,0,0-11.8,15.4-28.9,37.8Q475.35,38.55,294.45,275Zm0,0c134.1,140.7,267.2,280.7,401.1,422.2,18.5,19.7,28.3,30.2,28.3,30.2-13,11.6-26.6,22.9-40.5,33.4,0,0-7.9-10-24.3-30.8-121-152.1-242.4-303.2-364.6-455Zm0,0c152.3-127.2,303.6-256.7,456.1-385,21.6-18.2,36.6-30.8,36.6-30.8,11.2,13.4,21.9,27.4,31.9,41.7,0,0-15.6,11.1-38.9,27.6-163.3,115-324,231.1-485.7,346.5Zm0,0C466.05,367.7,635,463,806,557c24.4,13.7,39.5,22.1,39.5,22.1-8.9,15-18.5,29.8-28.6,44l-38-25.7C616.05,490.3,457.45,380.6,294.45,275Zm0,0c181.7-77.2,365.9-156.5,548.9-233.7,25.2-10.6,42.5-17.9,42.5-17.9,6.6,16.1,12.6,32.7,17.8,49.4l-44,14.4Q576.45,181.25,294.45,275Zm0,0c193,37.8,384.8,78.1,577.2,116.7,27.3,5.7,44.8,9.3,44.8,9.3-3.9,17-8.5,34-13.8,50.6,0,0-15.5-4.6-42-12.5-190.6-53.5-377-111.7-566.2-164.1Zm0,0c194.7-19.5,390.1-41.2,587.7-60.4,28.8-2.8,48.1-4.7,48.1-4.7,1.4,17.3,2,35,2,52.4,0,0-19.6.3-49,.7-196.5,5.2-392.9,7.3-588.8,12Z"/></g><g id="Calque_1-2" data-name="Calque 1"><circle class="cls-1" cx="294.45" cy="275.7" r="91.57"/></g></svg>